<svg width="1511" height="1511" viewBox="0 0 1511 1511" fill="none" xmlns="http://www.w3.org/2000/svg">
<g clip-path="url(#clip0_4979_267)">
<path d="M1322.12 0H188.875C84.5622 0 0 84.5622 0 188.875V1322.12C0 1426.44 84.5622 1511 188.875 1511H1322.12C1426.44 1511 1511 1426.44 1511 1322.12V188.875C1511 84.5622 1426.44 0 1322.12 0Z" fill="url(#paint0_linear_4979_267)"/>
<path d="M619.753 668.958C728.81 616.859 814.158 528.45 863.155 417.937C831.544 384.784 790.45 361.102 746.195 346.894L722.487 339C720.907 342.157 719.326 346.894 719.326 350.051C681.394 457.406 603.948 544.237 499.633 593.178C426.929 627.911 373.191 691.061 347.903 766.841L340 790.522C343.161 792.101 347.903 793.679 351.064 793.679C381.094 804.73 411.124 818.939 439.573 836.305C479.086 765.262 542.307 705.269 619.753 668.958Z" fill="white"/>
<path d="M1078.12 675.273C1019.64 763.683 939.032 834.727 839.459 882.089C758.852 919.979 697.211 991.023 668.762 1076.28L660.859 1103.11C690.889 1129.95 727.241 1150.48 766.755 1163.11L790.463 1171C792.043 1167.84 793.624 1163.11 793.624 1159.95C831.556 1052.59 909.002 965.763 1013.32 916.822C1086.02 882.089 1141.34 818.939 1165.05 743.159L1172.95 719.478C1139.76 710.006 1108.15 694.218 1078.12 675.273Z" fill="white"/>
<path d="M597.627 1021.02C637.14 926.294 709.844 848.935 803.095 804.73C888.444 763.683 959.567 700.533 1008.56 623.175C972.212 588.442 942.181 548.973 920.054 501.611C861.575 608.966 769.904 695.797 657.687 749.474C592.885 779.471 540.728 831.569 509.117 894.719C543.889 927.873 572.338 968.92 594.466 1014.7C594.466 1014.7 596.046 1017.86 597.627 1021.02Z" fill="white"/>
</g>
<defs>
<linearGradient id="paint0_linear_4979_267" x1="755.5" y1="-5.66244e-07" x2="774.5" y2="2045.5" gradientUnits="userSpaceOnUse">
<stop offset="0.294589" stop-color="#1C4451"/>
<stop offset="1" stop-color="#2A6678"/>
</linearGradient>
<clipPath id="clip0_4979_267">
<rect width="1511" height="1511" fill="white"/>
</clipPath>
</defs>
</svg>
